<svg width="20" height="20" viewBox="0 0 20 20" fill="none" xmlns="http://www.w3.org/2000/svg">
<g id="coins 1" clip-path="url(#clip0_713_725)">
<path id="Vector" d="M13.75 0C10.245 0 7.5 1.6475 7.5 3.75V5.90583C7.09667 5.85833 6.67917 5.83333 6.25 5.83333C2.745 5.83333 0 7.48083 0 9.58333V16.25C0 18.3525 2.745 20 6.25 20C9.09667 20 11.4425 18.9133 12.2225 17.3783C12.72 17.4508 13.2283 17.5 13.75 17.5C17.255 17.5 20 15.8525 20 13.75V3.75C20 1.6475 17.255 0 13.75 0ZM13.75 1.66667C16.3733 1.66667 18.3333 2.76667 18.3333 3.75C18.3333 4.73333 16.3733 5.83333 13.75 5.83333C11.1267 5.83333 9.16667 4.73333 9.16667 3.75C9.16667 2.76667 11.1267 1.66667 13.75 1.66667ZM6.25 7.5C8.87333 7.5 10.8333 8.6 10.8333 9.58333C10.8333 10.5667 8.87333 11.6667 6.25 11.6667C3.62667 11.6667 1.66667 10.5667 1.66667 9.58333C1.66667 8.6 3.62667 7.5 6.25 7.5ZM1.66667 12.1517C2.8 12.8808 4.41917 13.3333 6.25 13.3333C8.08083 13.3333 9.7 12.8808 10.8333 12.1517V12.9167C10.8333 13.9 8.87333 15 6.25 15C3.62667 15 1.66667 13.9 1.66667 12.9167V12.1517ZM6.25 18.3333C3.62667 18.3333 1.66667 17.2333 1.66667 16.25V15.485C2.8 16.2142 4.41917 16.6667 6.25 16.6667C8.08083 16.6667 9.7 16.2142 10.8333 15.485V16.25C10.8333 17.2333 8.87333 18.3333 6.25 18.3333ZM13.75 15.8333C13.3217 15.8333 12.9067 15.7942 12.5 15.7367V14.0867C12.91 14.135 13.325 14.1667 13.75 14.1667C15.5808 14.1667 17.2 13.7142 18.3333 12.985V13.75C18.3333 14.7333 16.3733 15.8333 13.75 15.8333ZM13.75 12.5C13.3217 12.5 12.9067 12.4608 12.5 12.4033V10.7533C12.91 10.8017 13.325 10.8333 13.75 10.8333C15.5808 10.8333 17.2 10.3808 18.3333 9.65167V10.4167C18.3333 11.4 16.3733 12.5 13.75 12.5ZM13.75 9.16667C13.2983 9.16667 12.8617 9.12417 12.435 9.06083C12.27 8.32167 11.7608 7.6575 11.0008 7.12667C11.8275 7.36417 12.7558 7.50083 13.75 7.50083C15.5808 7.50083 17.2 7.04833 18.3333 6.31917V7.08417C18.3333 8.0675 16.3733 9.1675 13.75 9.1675V9.16667Z" fill="#00336B"/>
</g>
<defs>
<clipPath id="clip0_713_725">
<rect width="20" height="20" fill="white"/>
</clipPath>
</defs>
</svg>
