<svg width="16" height="16" viewBox="0 0 16 16" fill="none" xmlns="http://www.w3.org/2000/svg">
<g clip-path="url(#clip0_789_4227)">
<path d="M7.9927 3.99236C6.52204 3.99236 5.32604 5.18836 5.32604 6.65902C5.32604 8.12969 6.52204 9.32569 7.9927 9.32569C9.46337 9.32569 10.6594 8.12969 10.6594 6.65902C10.6594 5.18836 9.46337 3.99236 7.9927 3.99236ZM7.9927 7.99236C7.25737 7.99236 6.65937 7.39436 6.65937 6.65902C6.65937 5.92369 7.25737 5.32569 7.9927 5.32569C8.72804 5.32569 9.32604 5.92369 9.32604 6.65902C9.32604 7.39436 8.72804 7.99236 7.9927 7.99236ZM15.992 12.329C15.958 12.0164 15.8167 11.721 15.5934 11.4957L13.3507 9.25369C13.352 9.25969 13.3534 9.26569 13.3507 9.25369C13.35 9.24969 13.3487 9.24502 13.3487 9.24702C13.3087 9.05769 13.384 8.78236 13.5614 8.66836C13.894 8.45369 14.1634 8.16236 14.362 7.80369C14.552 7.46036 14.652 7.06702 14.65 6.66969C14.652 6.26702 14.5527 5.87302 14.362 5.53036C14.1634 5.17169 13.894 4.88036 13.5607 4.66569C13.382 4.55036 13.2907 4.34569 13.334 4.15569C13.4234 3.76036 13.41 3.35569 13.294 2.95236C13.0747 2.18702 12.4627 1.57569 11.6974 1.35636C11.294 1.24102 10.8894 1.22636 10.4947 1.31702C10.3047 1.35902 10.1007 1.26836 9.98537 1.09036C9.77137 0.75769 9.48003 0.488357 9.1207 0.289023C8.4247 -0.0976432 7.55937 -0.0976432 6.8627 0.289023C6.50337 0.488357 6.2127 0.75769 5.9987 1.08969C5.88337 1.26836 5.68004 1.35969 5.4887 1.31702C5.0947 1.22702 4.69003 1.24036 4.2867 1.35636C3.52137 1.57569 2.90937 2.18769 2.69003 2.95236C2.57403 3.35636 2.5607 3.76102 2.65003 4.15569C2.6927 4.34502 2.60204 4.54969 2.4227 4.66569C2.09003 4.88102 1.8207 5.17169 1.62204 5.53036C1.43204 5.87369 1.33203 6.26702 1.33403 6.66436C1.33203 7.06702 1.43137 7.46102 1.62137 7.80369C1.82003 8.16236 2.09003 8.45369 2.42337 8.66902C2.60003 8.78302 2.6727 9.07036 2.63337 9.25969C2.63337 9.26102 2.63337 9.26302 2.63204 9.26702C2.6287 9.28169 2.63003 9.27502 2.63204 9.26702L0.400702 11.4984C0.179368 11.7217 0.0387016 12.017 0.00403495 12.329C-0.0799651 13.093 0.473368 13.7837 1.23803 13.869L2.03803 13.9577L2.12537 14.745C2.15737 15.0637 2.29937 15.3644 2.5267 15.5917C2.6747 15.7397 2.8567 15.8537 3.04737 15.9197C3.2007 15.975 3.35937 16.001 3.51737 16.001C3.88337 16.001 4.24137 15.8577 4.5007 15.5924L6.9847 13.1077C7.30137 13.259 7.64737 13.335 7.99337 13.335C8.34204 13.335 8.69003 13.2577 9.0087 13.1037L11.4907 15.5857C11.7547 15.8557 12.1154 16.001 12.4814 16.001C12.6367 16.001 12.7934 15.975 12.944 15.921C13.1407 15.8524 13.3227 15.739 13.4707 15.5904C13.698 15.3624 13.84 15.0617 13.87 14.7524L13.9587 13.9577L14.7587 13.869C15.5227 13.7844 16.0767 13.0937 15.9927 12.3297L15.992 12.329ZM3.4967 14.663L3.4547 14.605L3.24604 12.749L1.38537 12.5424C1.35137 12.539 1.32603 12.5077 1.34537 12.4384L2.90204 10.8817C3.20004 11.4064 3.69804 11.8077 4.28737 11.9764C4.6907 12.0917 5.09604 12.1057 5.49004 12.0157C5.6687 11.9744 5.86204 12.0544 5.98004 12.2144L3.4967 14.6624V14.663ZM8.86604 11.5204C8.77203 11.6664 8.6407 11.7864 8.47537 11.8784C8.1827 12.0404 7.80337 12.0404 7.51004 11.8784C7.34537 11.787 7.21404 11.6664 7.12004 11.5204C6.7747 10.9864 6.1887 10.673 5.58204 10.673C5.45337 10.673 5.32337 10.687 5.1947 10.7164C5.02137 10.755 4.83937 10.7484 4.65404 10.695C4.33204 10.603 4.06404 10.335 3.97204 10.013C3.9187 9.82769 3.91204 9.64569 3.95137 9.47236C4.11804 8.73902 3.7947 7.96569 3.14737 7.54769C3.0007 7.45302 2.88004 7.32169 2.7887 7.15636C2.70937 7.01302 2.66737 6.84436 2.66804 6.66302C2.66737 6.48769 2.70937 6.31902 2.7887 6.17569C2.88004 6.01102 3.00003 5.87969 3.1467 5.78502C3.7947 5.36702 4.11737 4.59369 3.95137 3.85969C3.91204 3.68636 3.91937 3.50502 3.9727 3.31902C4.0647 2.99702 4.3327 2.72969 4.6547 2.63769C4.84003 2.58502 5.02204 2.57769 5.1947 2.61636C5.9267 2.78302 6.70204 2.46036 7.12004 1.81169C7.21404 1.66569 7.34537 1.54569 7.51004 1.45369C7.8027 1.29169 8.18204 1.29169 8.47537 1.45369C8.6407 1.54569 8.77203 1.66569 8.86604 1.81169C9.28403 2.45969 10.058 2.78169 10.7907 2.61569C10.9647 2.57702 11.146 2.58436 11.3314 2.63702C11.6534 2.72902 11.9214 2.99702 12.014 3.31902C12.0674 3.50436 12.074 3.68636 12.0347 3.85969C11.868 4.59302 12.1907 5.36702 12.8387 5.78436C12.9854 5.87902 13.1054 6.01036 13.1967 6.17502C13.276 6.31902 13.318 6.48769 13.3174 6.66836C13.318 6.84369 13.276 7.01236 13.1967 7.15569C13.1054 7.32036 12.9854 7.45236 12.8394 7.54636C12.1914 7.96436 11.868 8.73836 12.0347 9.47102C12.074 9.64502 12.0674 9.82702 12.014 10.0124C11.9214 10.3344 11.6534 10.6024 11.3314 10.6944C11.148 10.7477 10.966 10.755 10.792 10.7157C10.06 10.5497 9.28537 10.8724 8.8667 11.5204H8.86604ZM14.6114 12.5424L12.7507 12.749L12.5447 14.6044L12.5054 14.661L12.4414 14.647H12.4387L10.006 12.215C10.124 12.055 10.316 11.9744 10.4967 12.0157C10.8914 12.1057 11.2954 12.091 11.6987 11.9764C12.2887 11.8077 12.7874 11.405 13.0854 10.8797L14.6667 12.4744C14.6707 12.5077 14.6454 12.539 14.6114 12.543V12.5424ZM2.6327 9.26569C2.63403 9.26036 2.63537 9.25502 2.6347 9.25836C2.6347 9.26102 2.63404 9.26369 2.63337 9.26569H2.6327Z" fill="#171717"/>
</g>
<defs>
<clipPath id="clip0_789_4227">
<rect width="16" height="16" fill="white"/>
</clipPath>
</defs>
</svg>
