<svg width="16" height="16" viewBox="0 0 16 16" fill="none" xmlns="http://www.w3.org/2000/svg">
<path d="M9.33361 6.33317C9.33361 7.0685 8.73561 7.6665 8.00027 7.6665C7.26494 7.6665 6.66694 7.0685 6.66694 6.33317C6.66694 5.59783 7.26494 4.99983 8.00027 4.99983C8.73561 4.99983 9.33361 5.59783 9.33361 6.33317ZM14.1123 5.47783C13.9529 5.1905 13.7409 4.9705 13.5003 4.8145C13.0709 4.53717 12.8423 4.02717 12.9556 3.52917C13.0203 3.24317 13.0163 2.93117 12.9236 2.6085C12.7596 2.03583 12.2929 1.56917 11.7203 1.40517C11.3976 1.3125 11.0856 1.3085 10.8003 1.37317C10.3016 1.4865 9.79161 1.2585 9.51427 0.8285C9.35894 0.587833 9.13827 0.375833 8.85161 0.2165C8.33027 -0.0721667 7.67094 -0.0721667 7.14961 0.2165C6.86227 0.375833 6.64227 0.587833 6.48694 0.8285C6.20961 1.25783 5.69961 1.4865 5.20094 1.37317C4.91561 1.3085 4.60361 1.3125 4.28094 1.40517C3.70827 1.56917 3.24161 2.03583 3.07761 2.6085C2.98494 2.93117 2.98094 3.24383 3.04561 3.52917C3.15894 4.02783 2.93027 4.53783 2.50094 4.8145C2.25961 4.96983 2.04827 5.1905 1.88894 5.47783C1.74294 5.7405 1.67227 6.03917 1.67361 6.33717C1.67227 6.63517 1.74361 6.93317 1.88894 7.1965C2.04827 7.48383 2.26027 7.70383 2.50094 7.85983C2.93027 8.13717 3.15894 8.64717 3.04561 9.14517C2.98094 9.43117 2.98494 9.74317 3.07761 10.0665C3.24161 10.6392 3.70827 11.1058 4.28094 11.2698C4.60361 11.3625 4.91561 11.3665 5.20094 11.3018C5.69961 11.1885 6.20961 11.4165 6.48694 11.8465C6.64227 12.0872 6.86227 12.2992 7.14961 12.4585C7.67094 12.7472 8.33094 12.7472 8.85161 12.4585C9.13894 12.2992 9.35894 12.0872 9.51427 11.8465C9.79161 11.4172 10.3016 11.1885 10.8003 11.3018C11.0856 11.3665 11.3976 11.3625 11.7203 11.2698C12.2929 11.1058 12.7596 10.6392 12.9236 10.0665C13.0163 9.74383 13.0203 9.43117 12.9556 9.14517C12.8423 8.6465 13.0709 8.1365 13.5003 7.85983C13.7416 7.7045 13.9529 7.48383 14.1123 7.1965C14.2583 6.93383 14.3289 6.63517 14.3276 6.33717C14.3289 6.03917 14.2576 5.74117 14.1123 5.47783ZM7.99294 9.00117C6.52227 9.00117 5.32627 7.80517 5.32627 6.3345C5.32627 4.86383 6.52227 3.66783 7.99294 3.66783C9.46361 3.66783 10.6596 4.86383 10.6596 6.3345C10.6596 7.80517 9.46361 9.00117 7.99294 9.00117ZM5.40094 12.6212C4.91694 12.7158 4.40361 12.6918 3.91361 12.5512C2.96494 12.2792 2.19427 11.5532 1.85961 10.6312L0.236273 12.2545C0.107606 12.3838 0.0256059 12.5552 0.0056059 12.7378C-0.0430608 13.1825 0.278273 13.5838 0.722939 13.6325L2.20361 13.7965L2.36694 15.2712C2.38561 15.4605 2.47027 15.6325 2.59961 15.7618C2.68427 15.8465 2.78761 15.9125 2.90427 15.9532C3.20027 16.0592 3.53161 15.9825 3.74627 15.7625L6.12694 13.3818C5.84161 13.1692 5.59827 12.9152 5.40027 12.6218L5.40094 12.6212ZM15.9956 12.7372C15.9756 12.5552 15.8936 12.3832 15.7649 12.2538L14.1416 10.6305C13.8069 11.5525 13.0356 12.2792 12.0876 12.5505C11.5969 12.6905 11.0849 12.7145 10.6003 12.6205C10.4029 12.9138 10.1589 13.1678 9.87361 13.3805L12.2543 15.7612C12.4696 15.9812 12.8009 16.0578 13.0963 15.9518C13.2129 15.9112 13.3163 15.8452 13.4009 15.7605C13.5303 15.6312 13.6149 15.4585 13.6336 15.2698L13.7969 13.7952L15.2776 13.6312C15.7223 13.5818 16.0436 13.1812 15.9949 12.7365L15.9956 12.7372Z" fill="white"/>
</svg>
