<svg width="16" height="16" viewBox="0 0 16 16" fill="none" xmlns="http://www.w3.org/2000/svg">
<g id="discord 1" clip-path="url(#clip0_786_3272)">
<g id="Group">
<path id="Vector" d="M13.5447 2.91322C12.5247 2.44522 11.4314 2.10055 10.2881 1.90322C10.2674 1.89922 10.2467 1.90922 10.2354 1.92788C10.0947 2.17788 9.93872 2.50455 9.83006 2.76055C8.60006 2.57655 7.37673 2.57655 6.17206 2.76055C6.06339 2.49855 5.90139 2.17788 5.76072 1.92788C5.74939 1.90922 5.72872 1.89988 5.70806 1.90322C4.56539 2.09988 3.47206 2.44455 2.45139 2.91322C2.44272 2.91655 2.43472 2.92322 2.43006 2.93122C0.356058 6.02988 -0.212609 9.05255 0.0660582 12.0379C0.0673915 12.0526 0.0753915 12.0666 0.0867248 12.0752C1.45539 13.0806 2.78073 13.6906 4.08206 14.0946C4.10273 14.1012 4.12472 14.0932 4.13806 14.0759C4.44606 13.6559 4.72006 13.2126 4.95539 12.7466C4.96939 12.7192 4.95606 12.6866 4.92739 12.6759C4.49206 12.5106 4.07806 12.3092 3.67939 12.0812C3.64806 12.0626 3.64539 12.0179 3.67406 11.9959C3.75806 11.9332 3.84206 11.8679 3.92206 11.8019C3.93672 11.7899 3.95672 11.7872 3.97406 11.7952C6.59272 12.9906 9.42739 12.9906 12.0147 11.7952C12.0321 11.7872 12.0521 11.7892 12.0674 11.8019C12.1474 11.8679 12.2314 11.9339 12.3161 11.9966C12.3454 12.0179 12.3434 12.0632 12.3114 12.0819C11.9127 12.3146 11.4987 12.5119 11.0627 12.6759C11.0341 12.6866 11.0221 12.7199 11.0354 12.7472C11.2754 13.2126 11.5501 13.6559 11.8521 14.0759C11.8647 14.0939 11.8874 14.1012 11.9081 14.0952C13.2154 13.6906 14.5414 13.0806 15.9094 12.0759C15.9214 12.0672 15.9287 12.0539 15.9301 12.0392C16.2634 8.58788 15.3714 5.58988 13.5647 2.93255C13.5614 2.92322 13.5534 2.91655 13.5447 2.91322ZM5.34672 10.2206C4.55806 10.2206 3.90872 9.49655 3.90872 8.60788C3.90872 7.71922 4.54539 6.99522 5.34672 6.99522C6.15406 6.99522 6.79739 7.72522 6.78472 8.60788C6.78472 9.49722 6.14739 10.2206 5.34672 10.2206ZM10.6634 10.2206C9.87539 10.2206 9.22539 9.49655 9.22539 8.60788C9.22539 7.71922 9.86206 6.99522 10.6634 6.99522C11.4707 6.99522 12.1141 7.72522 12.1014 8.60788C12.1014 9.49722 11.4707 10.2206 10.6634 10.2206Z" fill="black"/>
</g>
</g>
<defs>
<clipPath id="clip0_786_3272">
<rect width="16" height="16" fill="white"/>
</clipPath>
</defs>
</svg>
