<svg width="40" height="40" viewBox="0 0 40 40" fill="none" xmlns="http://www.w3.org/2000/svg">
<g clip-path="url(#clip0_2969_4758)">
<rect width="40" height="40" rx="12" fill="#212121"/>
<path d="M12.3648 20.357L9.22209 23.4989L6.07144 20.357L9.21418 17.2152L12.3648 20.357ZM20.004 12.7201L25.3949 18.1095L28.5376 14.9676L20.004 6.42847L11.4624 14.9676L14.6051 18.1095L20.004 12.7201ZM30.7858 17.2152L27.6431 20.357L30.7858 23.4989L33.9286 20.357L30.7858 17.2152ZM20.004 27.994L14.613 22.6046L11.4703 25.7464L20.004 34.2856L28.5376 25.7464L25.3949 22.6046L20.004 27.994ZM20.004 23.4989L23.1467 20.357L20.004 17.2152L16.8533 20.357L20.004 23.4989Z" fill="#F0B90B"/>
</g>
<defs>
<clipPath id="clip0_2969_4758">
<rect width="40" height="40" rx="20" fill="white"/>
</clipPath>
</defs>
</svg>
