<svg width="40" height="40" viewBox="0 0 40 40" fill="none" xmlns="http://www.w3.org/2000/svg">
<g clip-path="url(#clip0_2864_4971)">
<path d="M33.867 33.9616C41.3015 26.5271 41.3015 14.4734 33.867 7.03888C26.4325 -0.395631 14.3788 -0.39563 6.94428 7.03888C-0.49023 14.4734 -0.49023 26.5271 6.94428 33.9616C14.3788 41.3961 26.4325 41.3961 33.867 33.9616Z" fill="#326554"/>
<path d="M33.0555 32.9611C40.49 25.5266 40.49 13.4729 33.0555 6.03839C25.621 -1.39612 13.5673 -1.39612 6.13275 6.03839C-1.30175 13.4729 -1.30175 25.5266 6.13275 32.9611C13.5673 40.3956 25.621 40.3956 33.0555 32.9611Z" fill="#00FFA2"/>
<path d="M30.8516 31.2445C37.0388 25.0572 37.0388 15.0258 30.8516 8.83854C24.6643 2.65131 14.6329 2.65132 8.44564 8.83854C2.25841 15.0258 2.25841 25.0572 8.44564 31.2445C14.6329 37.4317 24.6643 37.4317 30.8516 31.2445Z" fill="#FEFEFE"/>
<path d="M19.5929 35.3313C28.343 35.3313 35.4363 28.238 35.4363 19.4879C35.4363 10.7379 28.343 3.64453 19.5929 3.64453C10.8428 3.64453 3.74951 10.7379 3.74951 19.4879C3.74951 28.238 10.8428 35.3313 19.5929 35.3313Z" fill="#15543A"/>
<path d="M30.8203 31.0954C36.9725 24.9432 36.9725 14.9684 30.8203 8.81618C24.668 2.66392 14.6933 2.66392 8.541 8.81617C2.38875 14.9684 2.38875 24.9432 8.541 31.0954C14.6933 37.2477 24.668 37.2477 30.8203 31.0954Z" fill="#15543A"/>
<path d="M19.6437 35.7847C28.3496 35.7847 35.407 28.7272 35.407 20.0214C35.407 11.3155 28.3496 4.25806 19.6437 4.25806C10.9379 4.25806 3.88037 11.3155 3.88037 20.0214C3.88037 28.7272 10.9379 35.7847 19.6437 35.7847Z" fill="#00AB6D"/>
<path d="M23.5533 12.5911C23.8583 12.6239 24.2087 12.7235 24.4626 13.0053C25.0024 13.604 25.6151 14.1279 26.1741 14.7069C26.8081 15.3636 26.8179 16.1056 26.1741 16.7512C25.6105 17.3164 25.0491 17.884 24.4842 18.448C23.9006 19.0305 23.1224 19.0336 22.5404 18.4533C21.9538 17.8685 21.37 17.2807 20.7889 16.6905C20.2294 16.1221 20.2269 15.3421 20.7838 14.778C21.382 14.1721 21.9859 13.5718 22.5871 12.9687C22.8358 12.7192 23.1377 12.5987 23.5533 12.5911Z" fill="white"/>
<path d="M20.3667 24.1798C20.3816 23.8135 20.5103 23.4963 20.768 23.2367C21.3679 22.6322 21.9735 22.0333 22.5708 21.4262C23.0823 20.9063 23.9106 20.8965 24.448 21.4309C25.0191 21.9989 25.5698 22.5876 26.1481 23.148C26.3861 23.3786 26.5678 23.6211 26.6274 23.9501C26.7049 24.3782 26.5932 24.7573 26.2974 25.0639C25.6853 25.6987 25.0646 26.3258 24.4336 26.942C23.891 27.4719 23.1109 27.4616 22.5736 26.929C21.9634 26.3242 21.3613 25.7113 20.7558 25.1018C20.5019 24.8462 20.3868 24.5325 20.3667 24.1798Z" fill="white"/>
<path d="M30.8623 19.9723C30.842 20.2987 30.7416 20.5963 30.5058 20.8345C29.8803 21.4668 29.2578 22.1023 28.6222 22.7244C28.0963 23.2391 27.3033 23.2223 26.7807 22.7002C26.1892 22.1091 25.6 21.5157 25.012 20.9212C24.4331 20.3359 24.434 19.5556 25.0117 18.9759C25.5967 18.3889 26.181 17.8013 26.7679 17.2163C27.3303 16.6557 28.1124 16.6543 28.6737 17.2149C29.2866 17.827 29.8967 18.4419 30.5048 19.0587C30.7521 19.3095 30.8533 19.622 30.8623 19.9723Z" fill="white"/>
<path d="M21.9604 28.3651C21.9578 28.6284 21.8606 28.8528 21.6759 29.0381C21.1016 29.6141 20.5288 30.1915 19.9493 30.7623C19.5808 31.1253 19.0314 31.1344 18.658 30.7696C18.06 30.1855 17.4718 29.591 16.89 28.9909C16.5524 28.6427 16.5531 28.0791 16.891 27.7322C17.4744 27.1333 18.0659 26.5421 18.6622 25.9562C19.0208 25.6038 19.5764 25.5962 19.9383 25.9479C20.5324 26.5253 21.1134 27.1163 21.6948 27.7065C21.8713 27.8857 21.9636 28.1083 21.9604 28.3651Z" fill="white"/>
<path d="M19.2866 14.2119C19.0323 14.2149 18.8096 14.1117 18.6249 13.9272C18.0603 13.3632 17.4926 12.8023 16.9366 12.23C16.528 11.8094 16.5399 11.2644 16.9502 10.8506C17.4961 10.3002 18.0432 9.75102 18.5916 9.2031C19.0331 8.76202 19.5751 8.76216 20.0191 9.20679C20.5721 9.76067 21.1225 10.3172 21.6709 10.8757C22.0613 11.2734 22.0646 11.8246 21.6765 12.2177C21.1159 12.7857 20.5486 13.347 19.9874 13.9143C19.7958 14.108 19.5723 14.2157 19.2866 14.2119Z" fill="white"/>
<path d="M13.4147 15.7389C13.4063 15.5748 13.4795 15.4444 13.5899 15.3329C13.9753 14.9439 14.3588 14.5529 14.7502 14.17C14.9953 13.9302 15.2932 13.9342 15.5386 14.1764C15.9283 14.561 16.3148 14.9491 16.6968 15.3413C16.9385 15.5895 16.9358 15.8794 16.6919 16.1274C16.308 16.5179 15.92 16.9044 15.5302 17.289C15.2882 17.5278 15.0032 17.534 14.764 17.3001C14.3671 16.9119 13.9768 16.517 13.5849 16.1236C13.4797 16.018 13.4105 15.894 13.4147 15.7389Z" fill="white"/>
<path d="M15.1352 25.9296C14.9803 25.933 14.8584 25.8635 14.7527 25.7579C14.3714 25.3769 13.9874 24.9986 13.6099 24.6138C13.3355 24.3341 13.3387 24.0572 13.6136 23.7777C13.9756 23.4096 14.3398 23.0438 14.7054 22.6794C15.005 22.3809 15.2769 22.3803 15.5716 22.6739C15.9319 23.0329 16.2921 23.3921 16.6506 23.7529C16.9495 24.0537 16.9482 24.3381 16.6481 24.6391C16.2783 25.0101 15.906 25.3787 15.5373 25.7508C15.425 25.8641 15.2978 25.934 15.1352 25.9296Z" fill="white"/>
<path d="M21.6867 20.6363C21.1239 21.2128 20.5554 21.784 19.9818 22.3497C19.5836 22.7421 19.0397 22.7391 18.6364 22.344C18.1262 21.8443 17.6171 21.3433 17.1239 20.8271C16.8499 20.5403 16.5477 20.3627 16.142 20.4011C15.8718 20.4367 15.6818 20.606 15.5072 20.7929C15.1024 21.2266 14.9414 21.4641 14.3883 20.8559C14.2097 20.6594 14.0121 20.4806 13.8276 20.2893C13.6178 20.0716 13.6162 19.8432 13.8259 19.6299C14.0857 19.3655 14.3608 19.1154 14.6117 18.8428C14.7792 18.6608 15.0787 18.6701 15.2388 18.8384C15.3889 18.9964 15.5345 19.1601 15.6976 19.3039C15.8361 19.426 15.9922 19.5328 16.1917 19.5359C16.5525 19.5311 16.8419 19.3932 17.0955 19.1271C17.5932 18.6041 18.1127 18.102 18.6251 17.593C19.0357 17.1853 19.5706 17.1676 19.9858 17.5724C20.568 18.1402 21.1407 18.718 21.7039 19.3047C22.0817 19.6982 22.07 20.2433 21.6867 20.6363Z" fill="white"/>
<path d="M10.9194 18.699C11.068 18.7 11.17 18.7583 11.2588 18.8491C11.5246 19.1205 11.7944 19.388 12.0579 19.6616C12.2282 19.8384 12.2436 20.0542 12.0771 20.232C11.7968 20.5315 11.5054 20.8211 11.208 21.1036C11.0376 21.2655 10.8114 21.2536 10.6344 21.0814C10.3512 20.806 10.0739 20.5244 9.80037 20.2393C9.63209 20.064 9.62805 19.8469 9.79819 19.6688C10.0816 19.3722 10.3768 19.0869 10.667 18.7968C10.7422 18.7216 10.8384 18.7046 10.9194 18.699Z" fill="white"/>
<path d="M17.2344 34.0294L17.2283 34.0281C16.7672 33.9345 16.3107 33.8246 15.8715 33.7014L16.0012 33.2388C16.4276 33.3584 16.8709 33.4651 17.3189 33.5562L17.3226 33.5568L17.3226 33.557C17.323 33.5571 17.3235 33.5571 17.3239 33.5572L17.317 33.5912L17.2458 34.0311L17.2344 34.0294ZM18.6468 34.1882L18.6771 33.7087C19.1295 33.7373 19.588 33.7437 20.0399 33.7278L20.0568 34.208C19.5893 34.2245 19.1149 34.2178 18.6468 34.1882ZM14.5343 33.2689C14.0908 33.1052 13.6541 32.9225 13.2365 32.7258L13.4412 32.2911C13.8463 32.4819 14.2701 32.6592 14.7006 32.8181L14.5343 33.2689ZM21.462 34.0888L21.3978 33.6126C21.8466 33.5521 22.2974 33.4684 22.7377 33.3639L22.8487 33.8315C22.3929 33.9396 21.9264 34.0262 21.462 34.0888ZM11.9913 32.0677C11.5848 31.8277 11.1886 31.567 10.8137 31.2929L11.0974 30.905C11.4596 31.17 11.8425 31.4219 12.2355 31.6539L11.9913 32.0677ZM24.2032 33.4387L24.0468 32.9843C24.4747 32.837 24.9005 32.6666 25.3123 32.4779L25.5125 32.9147C25.0864 33.11 24.6459 33.2862 24.2032 33.4387ZM9.71906 30.403C9.3699 30.088 9.03452 29.7518 8.72218 29.4039L9.07975 29.0829C9.38086 29.4183 9.70427 29.7425 10.041 30.0463L9.71906 30.403ZM26.7642 32.2652L26.5223 31.85C26.9136 31.6221 27.2982 31.3721 27.6654 31.1071L27.9466 31.4967C27.5668 31.7708 27.169 32.0294 26.7642 32.2652ZM7.83615 28.3048C7.56206 27.9252 7.30471 27.5258 7.0713 27.1179L7.48836 26.8792C7.7134 27.2726 7.96148 27.6575 8.22572 28.0235L7.83615 28.3048ZM29.0486 30.6167L28.7308 30.2563C29.0706 29.9567 29.3994 29.6369 29.708 29.3057L30.0595 29.6333C29.7402 29.9759 29.4001 30.3067 29.0486 30.6167ZM6.43513 25.8577C6.24663 25.4306 6.07731 24.987 5.93191 24.5394L6.3889 24.3909C6.5293 24.8232 6.69274 25.2514 6.87471 25.6637L6.43513 25.8577ZM30.9694 28.5557L30.5875 28.2642C30.8623 27.9042 31.1223 27.5264 31.3603 27.1413L31.769 27.3939C31.5228 27.7924 31.2538 28.1833 30.9694 28.5557ZM5.5633 23.1777C5.4637 22.722 5.38494 22.2541 5.32918 21.7872L5.80629 21.7303C5.86023 22.1819 5.93641 22.6344 6.03272 23.0751L5.5633 23.1777ZM32.4501 26.1589L32.0185 25.948C32.2172 25.5414 32.3979 25.12 32.5556 24.6955L33.006 24.8628C32.8428 25.3021 32.6558 25.7382 32.4501 26.1589ZM5.22826 20.3813C5.21666 19.9144 5.2269 19.4404 5.25864 18.9724L5.73804 19.0049C5.70729 19.4582 5.69738 19.9173 5.70858 20.3694L5.22826 20.3813ZM33.4316 23.5185L32.9669 23.3961C33.0819 22.9597 33.177 22.511 33.2496 22.0627L33.255 22.0291L33.7295 22.1045L33.724 22.1388C33.6488 22.6031 33.5504 23.0671 33.4316 23.5185ZM5.89271 17.6489L5.4184 17.5721L5.42111 17.5552C5.49512 17.0982 5.59076 16.64 5.70549 16.1928L6.17091 16.3122C6.05978 16.7454 5.96713 17.1893 5.89553 17.6313L5.89271 17.6489ZM33.4043 20.674C33.432 20.2214 33.4376 19.7629 33.4209 19.3113L33.901 19.2935C33.9184 19.7607 33.9126 20.2351 33.884 20.7034L33.4043 20.674ZM6.57067 15.0072L6.11828 14.8453C6.27651 14.4031 6.45704 13.9646 6.65482 13.5419L7.09002 13.7456C6.89858 14.1547 6.72385 14.5792 6.57067 15.0072ZM33.3032 17.9536C33.2419 17.5052 33.1574 17.0546 33.052 16.6141L33.5193 16.5023C33.6283 16.9581 33.7158 17.4245 33.7792 17.8885L33.3032 17.9536ZM7.72651 12.5395L7.3129 12.295C7.55246 11.8898 7.81373 11.4937 8.08948 11.1177L8.47694 11.4019C8.21053 11.7652 7.95804 12.1479 7.72651 12.5395ZM32.6699 15.3058C32.5218 14.8782 32.3506 14.4527 32.1611 14.0412L32.5975 13.8402C32.7936 14.266 32.9707 14.7062 33.1239 15.1485L32.6699 15.3058ZM9.33678 10.3456L8.98009 10.0237C9.29532 9.67444 9.63133 9.33886 9.9788 9.02626L10.3002 9.38349C9.96502 9.68498 9.6409 10.0087 9.33678 10.3456ZM31.531 12.8324C31.3022 12.4414 31.0515 12.0573 30.7859 11.6906L31.175 11.4087C31.4497 11.788 31.709 12.1853 31.9457 12.5897L31.531 12.8324ZM11.3586 8.52782L11.0766 8.13872C11.4564 7.86355 11.8554 7.60568 12.2622 7.37231L12.5013 7.78911C12.1091 8.01406 11.7246 8.2626 11.3586 8.52782ZM29.9331 10.6269C29.6328 10.2877 29.3124 9.95947 28.9807 9.65142L29.3076 9.29933C29.6508 9.61801 29.9823 9.95752 30.2929 10.3084L29.9331 10.6269ZM13.7158 7.17516L13.5219 6.73555C13.9482 6.54739 14.3918 6.37841 14.8401 6.23332L14.9881 6.69045C14.5553 6.83052 14.1273 6.99359 13.7158 7.17516ZM27.9375 8.77391C27.5769 8.49965 27.1986 8.24037 26.8132 8.00323L27.065 7.594C27.4638 7.83938 27.8552 8.10767 28.2284 8.39147L27.9375 8.77391ZM16.3035 6.33585L16.2012 5.86636C16.6537 5.76781 17.1209 5.68884 17.5899 5.63165L17.6481 6.10861C17.1938 6.16401 16.7414 6.24046 16.3035 6.33585ZM25.6186 7.34728C25.2116 7.14935 24.7899 6.96943 24.3651 6.8125L24.5316 6.36178C24.9712 6.52416 25.4076 6.71035 25.8288 6.91516L25.6186 7.34728ZM19.0092 6.00314L18.9927 5.52294C19.4527 5.50711 19.9256 5.51008 20.3981 5.53181L20.376 6.01181C19.9163 5.99066 19.4564 5.98776 19.0092 6.00314ZM23.065 6.40364C22.6381 6.29209 22.1996 6.19947 21.7616 6.12838L21.7403 6.12581L21.7974 5.64871L21.8337 5.6533C22.2882 5.72691 22.7434 5.82296 23.1865 5.93875L23.065 6.40364Z" fill="white"/>
<g style="mix-blend-mode:lighten" opacity="0.24">
<path d="M28.9731 2.92725L0.554688 19.6106C0.56868 22.6363 1.30568 25.541 2.62359 28.128L35.3989 8.88689C33.7642 6.4536 31.5733 4.39915 28.9731 2.92725Z" fill="white"/>
<path d="M36.2841 10.3401L3.46289 29.6082C4.09903 30.6225 4.82953 31.576 5.64449 32.4547L37.7088 13.631C37.3371 12.4871 36.8589 11.3856 36.2841 10.3401Z" fill="white"/>
</g>
</g>
<defs>
<clipPath id="clip0_2864_4971">
<rect width="40" height="40" fill="white"/>
</clipPath>
</defs>
</svg>
