<svg width="40" height="40" viewBox="0 0 40 40" fill="none" xmlns="http://www.w3.org/2000/svg">
<g clip-path="url(#clip0_2971_4152)">
<path d="M39.4013 24.8383C36.7299 35.5527 25.8767 42.0733 15.1599 39.4015C4.44751 36.7303 -2.07379 25.8777 0.598824 15.1642C3.2691 4.44862 14.1223 -2.07243 24.8358 0.598712C35.5519 3.26986 42.0728 14.1237 39.4011 24.8385L39.4013 24.8383H39.4013Z" fill="#F7931A"/>
<path d="M28.8201 17.1506C29.2182 14.489 27.1916 13.0583 24.4205 12.1039L25.3195 8.49857L23.1245 7.95171L22.2494 11.4621C21.6724 11.3182 21.0798 11.1826 20.4908 11.0482L21.3723 7.51463L19.1788 6.96777L18.2793 10.5719C17.8018 10.4632 17.3328 10.3558 16.8778 10.2426L16.8803 10.2312L13.8535 9.47547L13.2696 11.8195C13.2696 11.8195 14.898 12.1928 14.8637 12.2157C15.7525 12.4375 15.9133 13.0258 15.8866 13.4922L14.8626 17.5995C14.9238 17.615 15.0031 17.6375 15.0907 17.6727C15.0175 17.6545 14.9396 17.6347 14.8587 17.6153L13.4234 23.3691C13.3148 23.6391 13.0391 24.0443 12.4176 23.8904C12.4396 23.9223 10.8223 23.4923 10.8223 23.4923L9.7326 26.0045L12.5889 26.7165C13.1203 26.8497 13.641 26.9891 14.1538 27.1202L13.2455 30.7669L15.4379 31.3138L16.3374 27.7058C16.9363 27.8684 17.5176 28.0183 18.0866 28.1597L17.1901 31.7506L19.3852 32.2975L20.2933 28.6577C24.0361 29.3659 26.8504 29.0804 28.035 25.6954C28.9895 22.9701 27.9875 21.3981 26.0184 20.3731C27.4526 20.0423 28.5328 19.0992 28.8209 17.1509L28.8202 17.1504L28.8201 17.1506ZM23.8052 24.1819C23.1269 26.9072 18.5378 25.434 17.0499 25.0646L18.2552 20.2334C19.743 20.6047 24.5141 21.3397 23.8053 24.1819H23.8052ZM24.484 17.1111C23.8652 19.59 20.0457 18.3306 18.8067 18.0218L19.8994 13.6402C21.1385 13.949 25.1286 14.5254 24.4842 17.1111H24.484Z" fill="white"/>
</g>
<defs>
<clipPath id="clip0_2971_4152">
<rect width="40" height="40" fill="white"/>
</clipPath>
</defs>
</svg>
