<svg width="163" height="40" viewBox="0 0 163 40" fill="none" xmlns="http://www.w3.org/2000/svg">
<path d="M152.685 27.4602H149.685V17.4602H152.445L152.645 18.7202H152.845C153.525 17.8402 154.745 17.1602 156.325 17.1602C159.125 17.1602 160.925 18.7202 160.925 22.0002V27.4602H157.925V22.4402C157.925 20.5802 157.385 19.7202 155.525 19.7202C153.805 19.7202 152.685 20.6602 152.685 22.4602V27.4602Z" fill="#009660"/>
<path d="M144.669 14.7C144.669 13.74 145.589 13 146.869 13C148.149 13 149.069 13.74 149.069 14.7C149.069 15.66 148.149 16.4 146.869 16.4C145.589 16.4 144.669 15.66 144.669 14.7ZM148.369 17.46V27.46H145.369V17.46H148.369Z" fill="#009660"/>
<path d="M136.035 21.2801H133.075C133.275 18.6601 135.195 17.1201 138.635 17.1201C142.255 17.1201 144.115 18.5401 144.115 21.4001V27.4601H141.355L141.155 26.2001H140.955C140.135 27.1601 138.875 27.7601 137.235 27.7601C134.935 27.7601 133.375 26.6401 133.375 24.7401C133.375 22.7401 135.235 21.5601 138.155 21.5601C139.195 21.5601 140.215 21.6801 141.115 21.8601V21.3801C141.115 20.0801 140.515 19.5201 138.635 19.5201C136.915 19.5201 136.155 20.1001 136.035 21.2801ZM136.415 24.4401C136.415 25.1001 137.075 25.3601 138.075 25.3601C139.615 25.3601 140.855 24.7401 141.195 23.7201C140.295 23.5601 139.275 23.4801 138.355 23.4801C137.075 23.4801 136.415 23.8001 136.415 24.4401Z" fill="#009660"/>
<path d="M123.935 27.4596H120.935V14.0596H123.935V18.7196H124.135C124.815 17.8396 125.995 17.1596 127.575 17.1596C130.375 17.1596 132.175 18.7196 132.175 21.9996V27.4596H129.175V22.4396C129.175 20.5796 128.635 19.7196 126.775 19.7196C125.055 19.7196 123.935 20.6596 123.935 22.4596V27.4596Z" fill="#009660"/>
<path d="M104.681 20.7602C104.681 16.6002 107.841 13.6602 112.241 13.6602C116.501 13.6602 119.421 16.1402 119.781 19.9402H116.381C116.141 17.7802 114.661 16.5402 112.241 16.5402C109.681 16.5402 108.041 18.2002 108.041 20.7602C108.041 23.3202 109.681 24.9802 112.241 24.9802C114.701 24.9802 116.201 23.7002 116.421 21.4602H119.781C119.481 25.3202 116.541 27.8602 112.241 27.8602C107.841 27.8602 104.681 24.9202 104.681 20.7602Z" fill="#009660"/>
<path d="M95.3413 27.4596H92.3413V14.0596H95.3413V18.7196H95.5413C96.2213 17.8396 97.4013 17.1596 98.9813 17.1596C101.781 17.1596 103.581 18.7196 103.581 21.9996V27.4596H100.581V22.4396C100.581 20.5796 100.041 19.7196 98.1813 19.7196C96.4613 19.7196 95.3413 20.6596 95.3413 22.4596V27.4596Z" fill="#009660"/>
<path d="M80.3228 23.6002H83.3428C83.6228 24.8802 84.4828 25.4802 86.0828 25.4802C87.5628 25.4802 88.1028 25.1402 88.1028 24.6002C88.1028 24.1602 87.8628 23.8602 87.0028 23.7202L83.9428 23.2002C81.8828 22.8602 80.6028 21.9402 80.6028 20.3202C80.6028 18.2802 82.7028 17.1602 85.6028 17.1602C88.7028 17.1602 90.7228 18.6402 91.0628 21.0802H88.0428C87.7828 19.9802 87.0428 19.4402 85.6028 19.4402C84.1828 19.4402 83.6828 19.7402 83.6828 20.2402C83.6828 20.6402 83.9028 20.8602 84.6828 21.0002L87.7828 21.5402C89.9628 21.9202 91.1828 22.9002 91.1828 24.5202C91.1828 26.6602 89.1228 27.7602 86.0828 27.7602C82.8028 27.7602 80.7428 26.2602 80.3228 23.6002Z" fill="#009660"/>
<path d="M67.7258 22.4602C67.7258 19.3002 70.1658 17.1602 73.6658 17.1602C77.3458 17.1602 79.8058 19.4602 79.5058 23.1402H70.8058C71.0258 24.4402 72.1258 25.2802 73.6858 25.2802C75.0658 25.2802 75.9858 24.7202 76.3858 23.8002H79.5658C79.0058 26.1802 76.7658 27.7602 73.6858 27.7602C70.1458 27.7602 67.7258 25.6202 67.7258 22.4602ZM70.8858 21.2202H76.2858C76.0858 20.2202 75.0858 19.6002 73.7058 19.6002C72.3258 19.6002 71.0858 20.2202 70.8858 21.2202Z" fill="#009660"/>
<path d="M53.24 27.4596H50V14.0596H55.82L58.28 24.4596L60.74 14.0596H66.56V27.4596H63.32V16.8196H63.04L60.42 27.4596H56.14L53.52 16.8196H53.24V27.4596Z" fill="#009660"/>
<path d="M31.6341 15.1593C32.522 14.2681 33.9616 14.2681 34.8496 15.1593L38.0488 18.3701C38.9368 19.2613 38.9368 20.7061 38.0488 21.5973L34.8496 24.8081C33.9616 25.6993 32.522 25.6993 31.6341 24.8081L28.4348 21.5973C27.5469 20.7061 27.5469 19.2613 28.4348 18.3701L31.6341 15.1593Z" fill="url(#paint0_linear_2077_3187)"/>
<path d="M31.6341 15.1593C32.522 14.2681 33.9616 14.2681 34.8496 15.1593L38.0488 18.3701C38.9368 19.2613 38.9368 20.7061 38.0488 21.5973L34.8496 24.8081C33.9616 25.6993 32.522 25.6993 31.6341 24.8081L28.4348 21.5973C27.5469 20.7061 27.5469 19.2613 28.4348 18.3701L31.6341 15.1593Z" fill="url(#paint1_linear_2077_3187)"/>
<path d="M24.2931 7.8072C25.181 6.91604 26.6206 6.91604 27.5086 7.8072L30.7078 11.018C31.5957 11.9092 31.5957 13.3541 30.7078 14.2452L27.5086 17.4561C26.6206 18.3473 25.181 18.3473 24.2931 17.4561L21.0938 14.2452C20.2059 13.3541 20.2059 11.9092 21.0938 11.018L24.2931 7.8072Z" fill="url(#paint2_linear_2077_3187)"/>
<path d="M24.2931 7.8072C25.181 6.91604 26.6206 6.91604 27.5086 7.8072L30.7078 11.018C31.5957 11.9092 31.5957 13.3541 30.7078 14.2452L27.5086 17.4561C26.6206 18.3473 25.181 18.3473 24.2931 17.4561L21.0938 14.2452C20.2059 13.3541 20.2059 11.9092 21.0938 11.018L24.2931 7.8072Z" fill="url(#paint3_linear_2077_3187)"/>
<path d="M10.6617 9.87005C11.0169 9.51358 11.5927 9.51358 11.9479 9.87005L14.0563 11.9861C14.4115 12.3426 14.4115 12.9205 14.0563 13.277L11.9479 15.393C11.5927 15.7495 11.0169 15.7495 10.6617 15.393L8.55333 13.277C8.19815 12.9205 8.19815 12.3426 8.55333 11.9861L10.6617 9.87005Z" fill="#E4E6E7"/>
<path d="M10.6617 24.6371C11.0169 24.2807 11.5927 24.2807 11.9479 24.6371L14.0563 26.7532C14.4115 27.1096 14.4115 27.6876 14.0563 28.0441L11.9479 30.1601C11.5927 30.5166 11.0169 30.5166 10.6617 30.1601L8.55333 28.0441C8.19815 27.6876 8.19815 27.1096 8.55333 26.7532L10.6617 24.6371Z" fill="#E4E6E7"/>
<path d="M24.2931 22.5411C25.181 21.6499 26.6206 21.6499 27.5086 22.5411L30.7078 25.7519C31.5957 26.6431 31.5957 28.088 30.7078 28.9791L27.5086 32.19C26.6206 33.0811 25.181 33.0811 24.2931 32.19L21.0938 28.9791C20.2059 28.088 20.2059 26.6431 21.0938 25.7519L24.2931 22.5411Z" fill="url(#paint4_linear_2077_3187)"/>
<path d="M24.2931 22.5411C25.181 21.6499 26.6206 21.6499 27.5086 22.5411L30.7078 25.7519C31.5957 26.6431 31.5957 28.088 30.7078 28.9791L27.5086 32.19C26.6206 33.0811 25.181 33.0811 24.2931 32.19L21.0938 28.9791C20.2059 28.088 20.2059 26.6431 21.0938 25.7519L24.2931 22.5411Z" fill="url(#paint5_linear_2077_3187)"/>
<path d="M17.4129 1.15257C18.0471 0.516023 19.0754 0.516023 19.7097 1.15257L22.7247 4.17855C23.359 4.8151 23.359 5.84714 22.7247 6.48369L19.7097 9.50967C19.0754 10.1462 18.0471 10.1462 17.4129 9.50967L14.3978 6.48369C13.7636 5.84714 13.7636 4.8151 14.3978 4.17855L17.4129 1.15257Z" fill="#E4E6E7"/>
<path d="M17.4129 30.4902C18.0471 29.8537 19.0754 29.8537 19.7097 30.4902L22.7247 33.5162C23.359 34.1527 23.359 35.1848 22.7247 35.8213L19.7097 38.8473C19.0754 39.4839 18.0471 39.4839 17.4129 38.8473L14.3978 35.8213C13.7636 35.1848 13.7636 34.1527 14.3978 33.5162L17.4129 30.4902Z" fill="#E4E6E7"/>
<path d="M3.45998 18.014C3.73904 17.7339 4.1915 17.7339 4.47057 18.014L5.94376 19.4925C6.22283 19.7726 6.22283 20.2267 5.94376 20.5068L4.47057 21.9853C4.1915 22.2654 3.73904 22.2654 3.45997 21.9853L1.98678 20.5068C1.70771 20.2267 1.70771 19.7726 1.98678 19.4925L3.45998 18.014Z" fill="#E4E6E7"/>
<path d="M17.4301 15.8182C18.0652 15.1801 19.095 15.1801 19.7301 15.8182L22.7493 18.852C23.3845 19.4901 23.3845 20.5248 22.7493 21.163L19.7301 24.1967C19.095 24.8349 18.0652 24.8349 17.4301 24.1967L14.4939 21.2464C13.8586 20.608 12.8285 20.608 12.1931 21.2464L12.0962 21.3438H12.0929L11.4416 21.9982C11.1621 22.279 10.709 22.279 10.4296 21.9982L8.95437 20.5159C8.67488 20.2351 8.67488 19.7798 8.95437 19.4991L10.4296 18.0167C10.709 17.7359 11.1621 17.7359 11.4416 18.0167L12.2641 18.8432C12.8707 19.3847 13.7836 19.392 14.3982 18.8649L14.4109 18.852L17.4301 15.8182Z" fill="url(#paint6_linear_2077_3187)"/>
<defs>
<linearGradient id="paint0_linear_2077_3187" x1="36.5681" y1="20.7194" x2="27.1564" y2="30.8398" gradientUnits="userSpaceOnUse">
<stop stop-color="white"/>
<stop offset="1" stop-color="white" stop-opacity="0.08"/>
</linearGradient>
<linearGradient id="paint1_linear_2077_3187" x1="27.2531" y1="20.4112" x2="44.8158" y2="32.5284" gradientUnits="userSpaceOnUse">
<stop stop-color="#009F66"/>
<stop offset="0.724237" stop-color="#00D287"/>
</linearGradient>
<linearGradient id="paint2_linear_2077_3187" x1="29.2271" y1="13.3674" x2="19.8154" y2="23.4877" gradientUnits="userSpaceOnUse">
<stop stop-color="white"/>
<stop offset="1" stop-color="white" stop-opacity="0.08"/>
</linearGradient>
<linearGradient id="paint3_linear_2077_3187" x1="19.912" y1="13.0592" x2="37.4748" y2="25.1763" gradientUnits="userSpaceOnUse">
<stop stop-color="#009F66"/>
<stop offset="0.724237" stop-color="#00D287"/>
</linearGradient>
<linearGradient id="paint4_linear_2077_3187" x1="29.2271" y1="28.1013" x2="19.8154" y2="38.2216" gradientUnits="userSpaceOnUse">
<stop stop-color="white"/>
<stop offset="1" stop-color="white" stop-opacity="0.08"/>
</linearGradient>
<linearGradient id="paint5_linear_2077_3187" x1="19.912" y1="27.7931" x2="37.4748" y2="39.9102" gradientUnits="userSpaceOnUse">
<stop stop-color="#009F66"/>
<stop offset="0.724237" stop-color="#00D287"/>
</linearGradient>
<linearGradient id="paint6_linear_2077_3187" x1="8.76609" y1="20.0431" x2="23.2257" y2="20.0431" gradientUnits="userSpaceOnUse">
<stop stop-color="white"/>
<stop offset="0.520709" stop-color="#01AF70"/>
</linearGradient>
</defs>
</svg>
