<svg width="18" height="18" viewBox="0 0 18 18" fill="none" xmlns="http://www.w3.org/2000/svg">
<g id="Frame 1597883949">
<path id="Vector (Stroke)" fill-rule="evenodd" clip-rule="evenodd" d="M2.91131 4.42702C4.30126 2.57988 6.51185 1.38477 9 1.38477C12.1049 1.38477 14.7775 3.24574 15.9627 5.91242C15.9775 5.93952 15.9899 5.96793 15.9998 5.99734C16.396 6.91883 16.6154 7.93401 16.6154 9.00015C16.6154 13.204 13.2038 16.6155 9 16.6155C8.72582 16.6155 8.45502 16.601 8.18831 16.5727C8.16093 16.5718 8.13359 16.5688 8.10655 16.5636C4.32324 16.1209 1.38461 12.9018 1.38461 9.00015C1.38461 7.33016 1.92299 5.7852 2.83554 4.52948C2.85652 4.49258 2.88192 4.45814 2.91131 4.42702ZM3.18243 5.98309C2.71273 6.88629 2.44722 7.91242 2.44722 9.00015C2.44722 12.2766 4.85619 14.994 7.9983 15.4767C8.87879 14.4689 9.61556 13.3488 10.1908 12.1485C9.82062 12.2885 9.41929 12.3651 9 12.3651C7.76714 12.3651 6.68957 11.7028 6.10354 10.7144C4.8839 9.30161 3.89899 7.70187 3.18243 5.98309ZM5.68578 8.41464C4.95231 7.31774 4.35114 6.13428 3.89615 4.89173C5.09765 3.40138 6.93815 2.44738 9 2.44738C11.3078 2.44738 13.3382 3.64252 14.5058 5.44719C12.6573 5.17944 10.7719 5.24229 8.94074 5.63572C7.30799 5.66389 5.95941 6.85379 5.68578 8.41464ZM7.03312 10.198C7.01884 10.1665 7.00129 10.136 6.98043 10.107C6.80017 9.77863 6.69767 9.40143 6.69767 9.00015C6.69767 7.728 7.72785 6.69782 9 6.69782C10.2721 6.69782 11.3023 7.728 11.3023 9.00015C11.3023 9.40103 11.2 9.77789 11.0201 10.106C10.9998 10.1342 10.9821 10.1647 10.9673 10.1973C10.5632 10.8602 9.83356 11.3025 9 11.3025C8.16672 11.3025 7.43725 10.8605 7.03312 10.198ZM11.9279 10.6603C11.3531 12.4303 10.4702 14.0838 9.32134 15.5452C12.7893 15.3774 15.5528 12.5094 15.5528 9.00015C15.5528 8.16397 15.3959 7.36419 15.1099 6.62868C13.7963 6.36763 12.455 6.28814 11.1245 6.39018C11.8816 7.0071 12.3649 7.94696 12.3649 9.00015C12.3649 9.60393 12.2061 10.1705 11.9279 10.6603Z" fill="#171717"/>
</g>
</svg>
