<svg width="16" height="16" viewBox="0 0 16 16" fill="none" xmlns="http://www.w3.org/2000/svg">
<g id="bars-filter 1" clip-path="url(#clip0_714_1817)">
<path id="Vector" d="M16 2.3335C16 2.88683 15.5533 3.3335 15 3.3335H1C0.446667 3.3335 0 2.88683 0 2.3335C0 1.78016 0.446667 1.3335 1 1.3335H15C15.5533 1.3335 16 1.78016 16 2.3335ZM9.66667 13.3335H6.33333C5.78 13.3335 5.33333 13.7802 5.33333 14.3335C5.33333 14.8868 5.78 15.3335 6.33333 15.3335H9.66667C10.22 15.3335 10.6667 14.8868 10.6667 14.3335C10.6667 13.7802 10.22 13.3335 9.66667 13.3335ZM12.3333 7.3335H3.66667C3.11333 7.3335 2.66667 7.78016 2.66667 8.3335C2.66667 8.88683 3.11333 9.3335 3.66667 9.3335H12.3333C12.8867 9.3335 13.3333 8.88683 13.3333 8.3335C13.3333 7.78016 12.8867 7.3335 12.3333 7.3335Z" fill="#003724"/>
</g>
<defs>
<clipPath id="clip0_714_1817">
<rect width="16" height="16" fill="white"/>
</clipPath>
</defs>
</svg>
