<svg width="21" height="20" viewBox="0 0 21 20" fill="none" xmlns="http://www.w3.org/2000/svg">
<g id="Frame 1597883947">
<path id="Vector" d="M15.6667 12.6667H11.6667C9.82867 12.6667 8.33333 11.1713 8.33333 9.33333V5.33333C8.33333 3.49533 9.82867 2 11.6667 2H15.6667C17.5047 2 19 3.49533 19 5.33333V9.33333C19 11.1713 17.5047 12.6667 15.6667 12.6667ZM10.3333 18H6.33333C4.49533 18 3 16.5047 3 14.6667V10.6667C3 8.82867 4.49533 7.33333 6.33333 7.33333C6.702 7.33333 7 7.632 7 8V9.33333C7 11.9067 9.094 14 11.6667 14H13C13.3687 14 13.6667 14.2987 13.6667 14.6667C13.6667 16.5047 12.1713 18 10.3333 18Z" fill="#171717"/>
</g>
</svg>
