<svg width="17" height="16" viewBox="0 0 17 16" fill="none" xmlns="http://www.w3.org/2000/svg">
<g id="cross-circle 1" clip-path="url(#clip0_734_1375)">
<g id="Group">
<path id="Vector" d="M8.5 0C4.08172 0 0.5 3.58172 0.5 8C0.5 12.4183 4.08172 16 8.5 16C12.9183 16 16.5 12.4183 16.5 8C16.4952 3.58369 12.9163 0.00478125 8.5 0ZM11.1667 9.72466C11.4376 9.974 11.4551 10.3958 11.2057 10.6667C10.9564 10.9376 10.5346 10.9551 10.2637 10.7057C10.2502 10.6933 10.2372 10.6802 10.2247 10.6667L8.5 8.94266L6.776 10.6667C6.51116 10.9224 6.08913 10.9151 5.83334 10.6503C5.58384 10.3919 5.58384 9.98234 5.83334 9.724L7.55734 8L5.83334 6.276C5.57756 6.01116 5.58491 5.58913 5.84975 5.33334C6.10809 5.08384 6.51766 5.08384 6.776 5.33334L8.5 7.05734L10.2247 5.33334C10.474 5.06244 10.8958 5.04494 11.1667 5.29428C11.4376 5.54363 11.4551 5.96537 11.2057 6.23628C11.1933 6.24984 11.1802 6.26284 11.1667 6.27534L9.44266 8L11.1667 9.72466Z" fill="#FF3B30"/>
</g>
</g>
<defs>
<clipPath id="clip0_734_1375">
<rect width="16" height="16" fill="white" transform="translate(0.5)"/>
</clipPath>
</defs>
</svg>
