<svg width="16" height="16" viewBox="0 0 16 16" fill="none" xmlns="http://www.w3.org/2000/svg">
<g id="customer-service 1" clip-path="url(#clip0_4001_3267)">
<path id="Vector" d="M14 14.3333V15.9999H2.00003V14.3333C2.00003 12.7366 3.25669 11.4399 4.83136 11.3506L6.66669 14.3333L8.00003 12.3333L9.33336 14.3333L11.1687 11.3506C12.7434 11.4399 14 12.7373 14 14.3333ZM4.58136 2.68461C5.60069 1.72927 6.93536 1.25727 8.33469 1.34394C10.9507 1.51327 13.0007 3.78994 13.0007 6.52661C13.0007 7.70661 12.0414 8.66594 10.8614 8.66594H9.25736C9.09469 8.11327 8.58936 7.70661 7.98403 7.70661C7.24736 7.70661 6.65069 8.30327 6.65069 9.03994C6.65069 9.77661 7.24736 10.3733 7.98403 10.3733C8.34269 10.3733 8.66736 10.2299 8.90669 9.99927H10.8614C12.776 9.99927 14.334 8.44127 14.334 6.52661C14.3334 3.08927 11.736 0.22794 8.42003 0.0139398C6.64403 -0.101394 4.95936 0.50194 3.66936 1.71261C2.47803 2.82927 1.76203 4.37661 1.67603 6.00061H3.01136C3.09336 4.73194 3.64336 3.56394 4.58136 2.68461ZM10.0727 7.34061C10.088 7.33727 10.108 7.33327 10.108 7.33327H10.9787C11.3127 7.33327 11.6047 7.08794 11.6434 6.75594C11.6887 6.36461 11.672 5.95461 11.5827 5.53527C11.2867 4.14927 10.162 3.03127 8.77403 2.74594C6.41603 2.26127 4.33469 4.05927 4.33469 6.33327C4.33469 7.31261 4.72069 8.20327 5.34803 8.86127C5.42203 7.45461 6.57536 6.33327 8.00069 6.33327C8.84269 6.33327 9.58403 6.73127 10.0727 7.34061Z" fill="#171717"/>
</g>
<defs>
<clipPath id="clip0_4001_3267">
<rect width="16" height="16" fill="white"/>
</clipPath>
</defs>
</svg>
