<svg width="24" height="24" viewBox="0 0 24 24" fill="none" xmlns="http://www.w3.org/2000/svg">
<g id="left 1">
<g id="17">
<path id="Vector" d="M15 19C14.8684 19.0008 14.7379 18.9756 14.6161 18.9258C14.4943 18.876 14.3834 18.8027 14.29 18.71L8.29 12.71C8.10375 12.5227 7.99921 12.2692 7.99921 12.005C7.99921 11.7408 8.10375 11.4874 8.29 11.3L14.29 5.30003C14.4813 5.1362 14.7274 5.05059 14.9791 5.06032C15.2307 5.07004 15.4695 5.17437 15.6476 5.35246C15.8257 5.53056 15.93 5.7693 15.9397 6.02097C15.9494 6.27265 15.8638 6.51873 15.7 6.71003L10.41 12L15.7 17.29C15.8404 17.4293 15.9364 17.6071 15.9758 17.8009C16.0152 17.9947 15.9962 18.1958 15.9213 18.3789C15.8463 18.5619 15.7188 18.7186 15.5548 18.8292C15.3909 18.9397 15.1978 18.9992 15 19Z" fill="#171717"/>
</g>
</g>
</svg>
