<svg width="16" height="16" viewBox="0 0 16 16" fill="none" xmlns="http://www.w3.org/2000/svg">
<g clip-path="url(#clip0_789_4239)">
<path d="M16 2.66667C16 1.196 14.804 0 13.3333 0C11.8627 0 10.6667 1.196 10.6667 2.66667C10.6667 2.71133 10.678 2.75333 10.68 2.79733L4.924 4.596C4.45267 3.84067 3.62067 3.33333 2.66667 3.33333C1.196 3.33333 0 4.52933 0 6C0 7.47067 1.196 8.66667 2.66667 8.66667C3.20133 8.66667 3.698 8.50467 4.116 8.23267L8.32267 12.0887C8.12333 12.462 8 12.8813 8 13.3333C8 14.804 9.196 16 10.6667 16C12.1373 16 13.3333 14.804 13.3333 13.3333C13.3333 12.3247 12.764 11.456 11.936 11.0027L13.354 5.33133C14.8147 5.32 16 4.13 16 2.66667ZM11.076 4.07067C11.3193 4.46 11.66 4.776 12.064 4.99733L10.6467 10.6693C10.12 10.6733 9.63067 10.8327 9.218 11.1007L5.01133 7.24467C5.21067 6.87133 5.334 6.452 5.334 6C5.334 5.95533 5.32267 5.91333 5.32067 5.86933L11.076 4.07067Z" fill="white"/>
</g>
<defs>
<clipPath id="clip0_789_4239">
<rect width="16" height="16" fill="white"/>
</clipPath>
</defs>
</svg>
