<svg width="16" height="16" viewBox="0 0 16 16" fill="none" xmlns="http://www.w3.org/2000/svg">
<g id="wallet-2-svgrepo-com (2) 1">
<path id="Vector" d="M4.666 10.7C4.28 10.7 3.966 10.386 3.966 10V6.00005C3.966 5.61405 4.28 5.30005 4.666 5.30005C5.052 5.30005 5.366 5.61405 5.366 6.00005V10C5.366 10.386 5.052 10.7 4.666 10.7Z" fill="#555555"/>
<path id="Vector_2" d="M13.888 10.7H12.152C10.578 10.7 9.29797 9.48805 9.29797 8.00005C9.29797 6.51205 10.578 5.30005 12.152 5.30005H13.888C13.954 5.30005 13.992 5.30005 14.038 5.30205C14.746 5.34605 15.316 5.89205 15.364 6.57205C15.368 6.61805 15.368 6.66005 15.368 6.72005V9.27605C15.368 9.33805 15.368 9.37805 15.364 9.42405C15.316 10.106 14.746 10.652 14.038 10.696C13.992 10.698 13.954 10.698 13.888 10.698V10.7ZM12.154 6.70005C11.352 6.70005 10.7 7.28405 10.7 8.00005C10.7 8.71605 11.352 9.30005 12.154 9.30005H13.89C13.918 9.30005 13.946 9.30005 13.956 9.30005C13.96 9.30005 13.964 9.30005 13.968 9.30005C13.968 9.29405 13.968 9.28805 13.968 9.28005V6.72405C13.968 6.71605 13.968 6.71005 13.968 6.70405C13.964 6.70405 13.96 6.70405 13.956 6.70405C13.946 6.70405 13.918 6.70405 13.89 6.70405H12.154V6.70005Z" fill="#555555"/>
<path id="Vector_3" d="M8.66602 14.0341H6.66602C5.36202 14.0341 4.42002 14.0341 3.64602 13.9301C2.73002 13.8061 2.10602 13.5341 1.61802 13.0481C1.13002 12.5621 0.858019 11.9361 0.736019 11.0201C0.632019 10.2481 0.632019 9.30407 0.632019 8.00007C0.632019 6.69606 0.632019 5.75406 0.736019 4.98006C0.860019 4.06406 1.13202 3.44006 1.61802 2.95206C2.10602 2.46406 2.73002 2.19206 3.64602 2.07006C4.41802 1.96606 5.36202 1.96606 6.66602 1.96606H8.66602C9.97002 1.96606 10.912 1.96606 11.686 2.07006C12.602 2.19406 13.226 2.46606 13.714 2.95206C14.442 3.68006 14.622 4.64606 14.676 5.97006L13.278 6.02806C13.23 4.86206 13.08 4.29606 12.724 3.94206C12.148 3.36606 10.984 3.36606 8.66602 3.36606H6.66602C4.34802 3.36606 3.18402 3.36606 2.60802 3.94206C2.03202 4.51806 2.03202 5.68207 2.03202 8.00007C2.03202 10.3181 2.03202 11.4821 2.60802 12.0581C3.18402 12.6341 4.34802 12.6341 6.66602 12.6341H8.66602C10.984 12.6341 12.148 12.6341 12.724 12.0581C13.08 11.7041 13.228 11.1381 13.278 9.97206L14.676 10.0301C14.622 11.3541 14.44 12.3221 13.714 13.0481C13.228 13.5361 12.602 13.8081 11.686 13.9301C10.914 14.0341 9.97002 14.0341 8.66602 14.0341Z" fill="#555555"/>
<path id="Vector_4" d="M12 8.66598H11.994C11.626 8.66598 11.328 8.36798 11.328 7.99998C11.328 7.63198 11.626 7.33398 11.994 7.33398H12C12.368 7.33398 12.666 7.63198 12.666 7.99998C12.666 8.36798 12.368 8.66598 12 8.66598Z" fill="#555555"/>
</g>
</svg>
