<svg width="28" height="28" viewBox="0 0 28 28" fill="none" xmlns="http://www.w3.org/2000/svg">
<path d="M15.1667 19.5444L20.5998 14.1113C20.8186 13.8926 21.1153 13.7696 21.4247 13.7696C21.734 13.7696 22.0308 13.8926 22.2496 14.1113C22.4683 14.33 22.5911 14.6266 22.5911 14.936C22.5911 15.2454 22.4683 15.5421 22.2496 15.7609L15.1538 22.8566C14.8476 23.1622 14.4326 23.3338 14 23.3338C13.5674 23.3338 13.1524 23.1622 12.8462 22.8566L5.75045 15.7609C5.53173 15.5421 5.40894 15.2454 5.40894 14.936C5.40894 14.6266 5.53173 14.33 5.75045 14.1113C5.96923 13.8926 6.26596 13.7696 6.57532 13.7696C6.88468 13.7696 7.1814 13.8926 7.40019 14.1113L12.8333 19.5444V6.51042C12.8333 6.201 12.9562 5.9042 13.175 5.6854C13.3938 5.46661 13.6906 5.34375 14 5.34375C14.3094 5.34375 14.6062 5.46661 14.825 5.6854C15.0438 5.9042 15.1667 6.201 15.1667 6.51042V19.5444Z" fill="#171717"/>
</svg>
