<svg width="16" height="16" viewBox="0 0 16 16" fill="none" xmlns="http://www.w3.org/2000/svg">
<g clip-path="url(#clip0_789_4252)">
<path d="M10.6667 15.5427C9.832 15.8387 8.93467 16 8 16C7.06533 16 6.168 15.8387 5.33333 15.5427V14C5.33333 12.5293 6.52933 11.3333 8 11.3333C9.47067 11.3333 10.6667 12.5293 10.6667 14V15.5427ZM8 4.66667C7.26467 4.66667 6.66667 5.26467 6.66667 6C6.66667 6.73533 7.26467 7.33333 8 7.33333C8.73533 7.33333 9.33333 6.73533 9.33333 6C9.33333 5.26467 8.73533 4.66667 8 4.66667ZM16 8C16 10.9553 14.3893 13.5407 12 14.926V14C12 11.794 10.206 10 8 10C5.794 10 4 11.794 4 14V14.926C1.61067 13.5407 0 10.9553 0 8C0 3.58867 3.58867 0 8 0C12.4113 0 16 3.58867 16 8ZM10.6667 6C10.6667 4.52933 9.47067 3.33333 8 3.33333C6.52933 3.33333 5.33333 4.52933 5.33333 6C5.33333 7.47067 6.52933 8.66667 8 8.66667C9.47067 8.66667 10.6667 7.47067 10.6667 6Z" fill="white"/>
</g>
<defs>
<clipPath id="clip0_789_4252">
<rect width="16" height="16" fill="white"/>
</clipPath>
</defs>
</svg>
