<svg width="16" height="16" viewBox="0 0 16 16" fill="none" xmlns="http://www.w3.org/2000/svg">
<g id="wallet-2-svgrepo-com 2">
<path id="Vector" fill-rule="evenodd" clip-rule="evenodd" d="M14.0673 5.33536C14.0295 5.33298 13.9884 5.333 13.9458 5.33301L13.9351 5.33302H12.2628C10.8843 5.33302 9.70483 6.41806 9.70483 7.83301C9.70483 9.24794 10.8843 10.333 12.2628 10.333H13.9351H13.9458C13.9884 10.333 14.0295 10.3331 14.0673 10.3307C14.6272 10.2953 15.1224 9.85714 15.164 9.24514C15.1668 9.20501 15.1667 9.16174 15.1667 9.12168V9.11081V6.55524V6.54436C15.1667 6.50426 15.1668 6.461 15.164 6.42088C15.1224 5.80888 14.6272 5.37072 14.0673 5.33536ZM12.1145 8.49968C12.4694 8.49968 12.757 8.20121 12.757 7.83301C12.757 7.46481 12.4694 7.16634 12.1145 7.16634C11.7596 7.16634 11.4719 7.46481 11.4719 7.83301C11.4719 8.20121 11.7596 8.49968 12.1145 8.49968Z" fill="white"/>
<path id="Vector_2" fill-rule="evenodd" clip-rule="evenodd" d="M13.9452 11.3333C14.0446 11.3307 14.1199 11.4228 14.0929 11.5185C13.9591 11.9935 13.7466 12.3983 13.4058 12.7392C12.9069 13.2381 12.2742 13.4595 11.4926 13.5646C10.7331 13.6667 9.76272 13.6667 8.53752 13.6667H7.12898C5.9038 13.6667 4.93338 13.6667 4.17391 13.5646C3.39229 13.4595 2.75966 13.2381 2.26075 12.7392C1.76184 12.2403 1.54043 11.6076 1.43535 10.826C1.33323 10.0665 1.33324 9.09613 1.33325 7.87093V7.79573C1.33324 6.57055 1.33323 5.60013 1.43535 4.84065C1.54043 4.05904 1.76184 3.42641 2.26075 2.92749C2.75966 2.42859 3.39229 2.20717 4.17391 2.10209C4.93338 1.99998 5.9038 1.99999 7.12898 2H8.53752C9.76272 1.99999 10.7331 1.99998 11.4926 2.10209C12.2742 2.20717 12.9069 2.42859 13.4058 2.92749C13.7466 3.26835 13.959 3.67316 14.0929 4.14812C14.1199 4.24383 14.0446 4.33591 13.9452 4.33333L12.2626 4.33334C10.3715 4.33334 8.70465 5.82727 8.70465 7.83333C8.70465 9.8394 10.3715 11.3333 12.2626 11.3333H13.9452ZM4.66659 10.3333C4.39045 10.3333 4.16659 10.1095 4.16659 9.83333V5.83333C4.16659 5.55719 4.39045 5.33333 4.66659 5.33333C4.94273 5.33333 5.16659 5.55719 5.16659 5.83333V9.83333C5.16659 10.1095 4.94273 10.3333 4.66659 10.3333Z" fill="white"/>
</g>
</svg>
