<svg width="20" height="20" viewBox="0 0 20 20" fill="none" xmlns="http://www.w3.org/2000/svg">
<path id="Vector" d="M20 10C20 8.645 19.405 7.36667 18.3958 6.56333C18.5125 5.21167 18.0292 3.8875 17.0708 2.92833C16.1125 1.97083 14.7925 1.48583 13.5067 1.6325C12.6333 0.595 11.355 0 10 0C8.645 0 7.36667 0.595 6.56333 1.60417C5.21 1.4875 3.88667 1.97 2.92833 2.92917C1.97 3.8875 1.4875 5.2125 1.6325 6.49333C0.595 7.36667 0 8.645 0 10C0 11.355 0.595 12.6333 1.60417 13.4367C1.4875 14.7883 1.97083 16.1133 2.92917 17.0717C3.8875 18.0308 5.21583 18.515 6.49333 18.3675C7.36667 19.405 8.645 20 10 20C11.355 20 12.6333 19.405 13.4367 18.3958C14.785 18.5117 16.1117 18.03 17.0708 17.0708C18.0283 16.1125 18.5117 14.7875 18.3667 13.5067C19.405 12.6333 20 11.355 20 10ZM17.2942 12.2317C16.895 12.5675 16.6908 13.0592 16.7358 13.5792C16.8092 14.44 16.5025 15.2833 15.8925 15.8925C15.2825 16.5025 14.4408 16.8083 13.5792 16.7358C13.0575 16.6933 12.5683 16.895 12.2325 17.2942C11.6758 17.955 10.8625 18.3342 10 18.3342C9.1375 18.3342 8.32417 17.955 7.7675 17.2942C7.46167 16.9317 7.02833 16.7308 6.56167 16.7308C6.515 16.7308 6.4675 16.7325 6.42083 16.7367C5.565 16.8108 4.7175 16.5033 4.1075 15.8933C3.49833 15.2833 3.19083 14.44 3.265 13.58C3.30917 13.06 3.10667 12.57 2.70667 12.2325C2.04583 11.6767 1.66667 10.8625 1.66667 10.0008C1.66667 9.13917 2.04583 8.325 2.70667 7.76833C3.10583 7.43167 3.30917 6.94083 3.26417 6.42083C3.19083 5.56083 3.4975 4.7175 4.1075 4.1075C4.7175 3.49833 5.56083 3.19333 6.42083 3.265C6.93833 3.30583 7.43083 3.10583 7.76833 2.70667C8.32417 2.04583 9.13833 1.66667 10 1.66667C10.8617 1.66667 11.6758 2.04583 12.2325 2.70667C12.5683 3.105 13.0583 3.31167 13.58 3.26417C14.4342 3.19417 15.2825 3.4975 15.8925 4.1075C16.5017 4.71667 16.8092 5.56083 16.7358 6.42083C16.6908 6.94083 16.8942 7.43167 17.2942 7.76833C17.9542 8.32417 18.3333 9.13833 18.3333 10C18.3333 10.8617 17.9542 11.6758 17.2942 12.2317ZM13.3333 11.6667C13.3333 13.045 12.2117 14.1667 10.8333 14.1667V15C10.8333 15.46 10.46 15.8333 10 15.8333C9.54 15.8333 9.16667 15.46 9.16667 15V14.1667H8.94333C8.05333 14.1667 7.22417 13.6883 6.77833 12.9175C6.54833 12.5192 6.68417 12.01 7.0825 11.7792C7.48 11.5483 7.99 11.685 8.22083 12.0833C8.36917 12.34 8.64667 12.5 8.94333 12.5H10.8333C11.2933 12.5 11.6667 12.1258 11.6667 11.6667C11.6667 11.3517 11.4408 11.085 11.13 11.0333L8.595 10.6108C7.4775 10.425 6.66583 9.46667 6.66583 8.33333C6.66583 6.955 7.7875 5.83333 9.16583 5.83333V5C9.16583 4.54 9.53917 4.16667 9.99917 4.16667C10.4592 4.16667 10.8325 4.54 10.8325 5V5.83333H11.0558C11.945 5.83333 12.775 6.3125 13.2208 7.08333C13.4517 7.48167 13.315 7.99083 12.9175 8.22167C12.5175 8.45167 12.0075 8.31583 11.7792 7.9175C11.63 7.66 11.3533 7.50083 11.0567 7.50083H9.16667C8.7075 7.50083 8.33333 7.875 8.33333 8.33417C8.33333 8.64917 8.55917 8.91583 8.87 8.9675L11.4042 9.39C12.5225 9.57583 13.3333 10.5342 13.3333 11.6675V11.6667Z" fill="#003724"/>
</svg>
