<svg width="16" height="16" viewBox="0 0 16 16" fill="none" xmlns="http://www.w3.org/2000/svg">
<g clip-path="url(#clip0_789_4241)">
<path d="M13.3333 0C11.8627 0 10.6667 1.196 10.6667 2.66667C10.6667 2.71133 10.678 2.75333 10.68 2.79733L4.924 4.596C4.45267 3.84067 3.62067 3.33333 2.66667 3.33333C1.196 3.33333 0 4.52933 0 6C0 7.47067 1.196 8.66667 2.66667 8.66667C3.20133 8.66667 3.698 8.50467 4.116 8.23267L8.32267 12.0887C8.12333 12.462 8 12.8813 8 13.3333C8 14.804 9.196 16 10.6667 16C12.1373 16 13.3333 14.804 13.3333 13.3333C13.3333 12.3247 12.764 11.456 11.936 11.0027L13.354 5.33133C14.8147 5.32 16 4.13 16 2.66667C16 1.20333 14.804 0 13.3333 0ZM2.66667 7.33333C1.93 7.33333 1.33333 6.73667 1.33333 6C1.33333 5.26333 1.93 4.66667 2.66667 4.66667C3.40333 4.66667 4 5.26333 4 6C4 6.73667 3.40333 7.33333 2.66667 7.33333ZM12 13.3333C12 14.07 11.4033 14.6667 10.6667 14.6667C9.93 14.6667 9.33333 14.07 9.33333 13.3333C9.33333 12.5967 9.93 12 10.6667 12C11.4033 12 12 12.5967 12 13.3333ZM10.646 10.6687C10.1193 10.6727 9.63 10.832 9.21733 11.1L5.01067 7.244C5.21 6.87067 5.33333 6.45133 5.33333 5.99933C5.33333 5.95467 5.322 5.91267 5.32 5.86867L11.076 4.07C11.3193 4.45933 11.66 4.77533 12.064 4.99667L10.6467 10.6687H10.646ZM13.3333 4C12.5967 4 12 3.40333 12 2.66667C12 1.93 12.5967 1.33333 13.3333 1.33333C14.07 1.33333 14.6667 1.93 14.6667 2.66667C14.6667 3.40333 14.07 4 13.3333 4Z" fill="#171717"/>
</g>
<defs>
<clipPath id="clip0_789_4241">
<rect width="16" height="16" fill="white"/>
</clipPath>
</defs>
</svg>
