<svg width="16" height="16" viewBox="0 0 16 16" fill="none" xmlns="http://www.w3.org/2000/svg">
<g id="pencil (1) 1" clip-path="url(#clip0_734_1949)">
<path id="Vector" d="M15.3247 3.63475C15.306 3.51675 15.1167 2.45675 14.3487 1.68275C13.5773 0.928083 12.5133 0.741416 12.3947 0.72275C12.2367 0.69675 12.0753 0.730083 11.94 0.814083C11.8927 0.843416 11.1973 1.27875 9.82468 2.43942C10.5307 2.68875 11.4433 3.12142 12.1833 3.84542C12.926 4.57208 13.37 5.46608 13.6247 6.15942C14.7713 4.81942 15.2027 4.14075 15.2313 4.09408C15.3167 3.95742 15.35 3.79408 15.3247 3.63475Z" fill="#999999"/>
<path id="Vector_2" d="M8.63333 3.48193C7.91799 4.12727 7.08533 4.91127 6.13199 5.85793C2.08999 9.87127 1.02999 11.4759 0.98666 11.5419C0.925993 11.6353 0.889326 11.7426 0.88066 11.8533L0.667993 14.5673C0.653326 14.7619 0.723327 14.9526 0.861327 15.0906C0.98666 15.2159 1.15666 15.2859 1.33333 15.2859C1.34999 15.2859 1.36733 15.2859 1.38466 15.2839L4.11866 15.0733C4.22866 15.0646 4.33466 15.0293 4.42733 14.9699C4.49399 14.9273 6.10933 13.8746 10.1507 9.86193C11.1253 8.89393 11.9293 8.05127 12.5873 7.3306C12.4867 6.89793 12.1353 5.66327 11.2507 4.7986C10.3533 3.9206 9.06266 3.5766 8.63333 3.48193Z" fill="#999999"/>
</g>
<defs>
<clipPath id="clip0_734_1949">
<rect width="16" height="16" fill="white"/>
</clipPath>
</defs>
</svg>
