<svg width="20" height="20" viewBox="0 0 20 20" fill="none" xmlns="http://www.w3.org/2000/svg">
<g id="stats 1" clip-path="url(#clip0_1023_2145)">
<g id="_x34_">
<path id="Vector" d="M15 1.66667C16.8383 1.66667 18.3333 3.16167 18.3333 5V15C18.3333 16.8383 16.8383 18.3333 15 18.3333H5C3.16167 18.3333 1.66667 16.8383 1.66667 15V5C1.66667 3.16167 3.16167 1.66667 5 1.66667H15ZM15 0H5C2.23833 0 0 2.23833 0 5V15C0 17.7617 2.23833 20 5 20H15C17.7617 20 20 17.7617 20 15V5C20 2.23833 17.7617 0 15 0Z" fill="#171717"/>
</g>
<g id="_x33_">
<path id="Vector_2" d="M5.83333 15.0002C5.37333 15.0002 5 14.6277 5 14.1668V9.16683C5 8.70683 5.37333 8.3335 5.83333 8.3335C6.29333 8.3335 6.66667 8.70683 6.66667 9.16683V14.1668C6.66667 14.6277 6.29333 15.0002 5.83333 15.0002Z" fill="#171717"/>
</g>
<g id="_x32_">
<path id="Vector_3" d="M9.99999 15C9.53999 15 9.16666 14.6275 9.16666 14.1667V5.83333C9.16666 5.37333 9.53999 5 9.99999 5C10.46 5 10.8333 5.37333 10.8333 5.83333V14.1667C10.8333 14.6275 10.46 15 9.99999 15Z" fill="#171717"/>
</g>
<g id="_x31_">
<path id="Vector_4" d="M14.1667 15.0002C13.7058 15.0002 13.3333 14.6277 13.3333 14.1668V9.16683C13.3333 8.70683 13.7058 8.3335 14.1667 8.3335C14.6275 8.3335 15 8.70683 15 9.16683V14.1668C15 14.6277 14.6275 15.0002 14.1667 15.0002Z" fill="#171717"/>
</g>
</g>
<defs>
<clipPath id="clip0_1023_2145">
<rect width="20" height="20" fill="white"/>
</clipPath>
</defs>
</svg>
