<svg width="98" height="73" viewBox="0 0 98 73" fill="none" xmlns="http://www.w3.org/2000/svg">
<g id="extension-puzzle-sharp-svgrepo-com 1" style="mix-blend-mode:soft-light" filter="url(#filter0_d_1723_4236)">
<path id="Vector" d="M55.0844 82.4651L41.4822 76.8282L44.3727 69.8533C44.6421 69.2091 44.7783 68.517 44.7729 67.8188C44.7676 67.1205 44.6208 66.4306 44.3416 65.7906C43.6493 64.152 42.2151 62.7978 40.4129 62.0813C38.813 61.4359 37.0369 61.3754 35.3968 61.9103C34.3124 62.2834 32.8645 63.1066 32.1146 64.9163L29.2746 71.7692L15.7884 66.1803C13.5391 65.2453 11.7527 63.4563 10.8209 61.2058C9.88912 58.9553 9.88818 56.4271 10.8183 54.1759L16.4071 40.6899L23.3821 43.5805C24.7799 44.1598 26.3874 44.1251 27.9063 43.4886C28.7512 43.1349 29.5178 42.6176 30.162 41.9665C30.8062 41.3153 31.3153 40.5433 31.66 39.6946C32.9542 36.4423 31.4242 32.6095 28.3189 31.3227L21.4659 28.4827L27.1154 14.8502C27.5715 13.7374 28.2488 12.7287 29.1063 11.8854C29.9638 11.0422 30.9836 10.3818 32.104 9.94449C34.3444 9.06395 36.8402 9.0935 39.0592 10.0269L48.7092 14.026L49.6249 11.8165C50.1752 10.4886 50.9845 9.2836 52.0055 8.27186C53.0265 7.26011 54.2389 6.46186 55.5717 5.9237C56.9046 5.38554 58.3313 5.11825 59.7686 5.13743C61.2059 5.15661 62.625 5.46187 63.9431 6.0354C69.3194 8.37429 71.8429 14.7411 69.5696 20.2267L68.7052 22.3126L78.3552 26.3117C79.4628 26.7568 80.4703 27.4186 81.3187 28.2582C82.1671 29.0978 82.8393 30.0984 83.2959 31.2012C83.7525 32.304 83.9843 33.4869 83.9777 34.6805C83.9711 35.8741 83.7262 37.0544 83.2574 38.1521L79.2584 47.8019L81.3428 48.6657C86.9247 50.9789 89.632 57.286 87.3783 62.7244C85.0633 68.3107 78.6947 70.9978 73.1815 68.7131L70.9719 67.7974L66.9729 77.4472C65.0334 82.1272 59.7004 84.3781 55.0844 82.4651Z" fill="url(#paint0_linear_1723_4236)"/>
</g>
<defs>
<filter id="filter0_d_1723_4236" x="-5.1" y="-4.1" width="108.2" height="108.2" filterUnits="userSpaceOnUse" color-interpolation-filters="sRGB">
<feFlood flood-opacity="0" result="BackgroundImageFix"/>
<feColorMatrix in="SourceAlpha" type="matrix" values="0 0 0 0 0 0 0 0 0 0 0 0 0 0 0 0 0 0 127 0" result="hardAlpha"/>
<feOffset/>
<feGaussianBlur stdDeviation="2.55"/>
<feComposite in2="hardAlpha" operator="out"/>
<feColorMatrix type="matrix" values="0 0 0 0 1 0 0 0 0 1 0 0 0 0 1 0 0 0 1 0"/>
<feBlend mode="normal" in2="BackgroundImageFix" result="effect1_dropShadow_1723_4236"/>
<feBlend mode="normal" in="SourceGraphic" in2="effect1_dropShadow_1723_4236" result="shape"/>
</filter>
<linearGradient id="paint0_linear_1723_4236" x1="98.2296" y1="19.9157" x2="33.0704" y2="48.3799" gradientUnits="userSpaceOnUse">
<stop stop-color="white"/>
<stop offset="1" stop-color="white" stop-opacity="0.33"/>
</linearGradient>
</defs>
</svg>
