<svg width="98" height="72" viewBox="0 0 98 72" fill="none" xmlns="http://www.w3.org/2000/svg">
<g id="telegram-svgrepo-com 1" style="mix-blend-mode:soft-light" filter="url(#filter0_d_1721_4175)">
<path id="Vector" d="M84.5644 14.9228C84.5644 14.9228 92.4969 11.8297 91.8358 19.3416C91.6155 22.4348 89.6324 33.2607 88.09 44.9705L82.8016 79.6578C82.8016 79.6578 82.361 84.7393 78.3947 85.6231C74.4283 86.5068 68.4791 82.53 67.3772 81.6462C66.4959 80.9834 50.8514 71.0411 45.3426 66.1805C43.8001 64.8549 42.0373 62.2036 45.5629 59.1105L68.6994 37.0168C71.3436 34.3655 73.9878 28.1792 62.9703 35.6911L32.1217 56.6803C32.1217 56.6803 28.5962 58.8895 21.9859 56.9012L7.66323 52.4824C7.66323 52.4824 2.37489 49.1684 11.4091 45.8541C33.4439 35.47 60.5466 24.865 84.5644 14.9228Z" fill="url(#paint0_linear_1721_4175)"/>
</g>
<defs>
<filter id="filter0_d_1721_4175" x="-5.1" y="-5.1" width="108.2" height="108.2" filterUnits="userSpaceOnUse" color-interpolation-filters="sRGB">
<feFlood flood-opacity="0" result="BackgroundImageFix"/>
<feColorMatrix in="SourceAlpha" type="matrix" values="0 0 0 0 0 0 0 0 0 0 0 0 0 0 0 0 0 0 127 0" result="hardAlpha"/>
<feOffset/>
<feGaussianBlur stdDeviation="2.55"/>
<feComposite in2="hardAlpha" operator="out"/>
<feColorMatrix type="matrix" values="0 0 0 0 1 0 0 0 0 1 0 0 0 0 1 0 0 0 1 0"/>
<feBlend mode="normal" in2="BackgroundImageFix" result="effect1_dropShadow_1721_4175"/>
<feBlend mode="normal" in="SourceGraphic" in2="effect1_dropShadow_1721_4175" result="shape"/>
</filter>
<linearGradient id="paint0_linear_1721_4175" x1="84.5" y1="14.0005" x2="38" y2="72.0005" gradientUnits="userSpaceOnUse">
<stop stop-color="white"/>
<stop offset="1" stop-color="white" stop-opacity="0.33"/>
</linearGradient>
</defs>
</svg>
